<?xml version="1.0" encoding="UTF-8"?>
<svg width="198px" height="14px" viewBox="0 0 198 14" version="1.1" xmlns="http://www.w3.org/2000/svg" xmlns:xlink="http://www.w3.org/1999/xlink">
    <!-- Generator: Sketch 55.2 (78181) - https://sketchapp.com -->
    <title>Fill 1</title>
    <desc>Created with Sketch.</desc>
    <g id="Checkout" stroke="none" stroke-width="1" fill="none" fill-rule="evenodd">
        <g id="Checkout-Desktop-2" transform="translate(-326.000000, -36.000000)" fill="#231F20">
            <path d="M476.298682,44.672874 C476.298682,46.6749431 474.877608,48.1729774 472.936095,48.1729774 C470.990445,48.1729774 469.573509,46.6749431 469.573509,44.672874 L469.573509,41.7152907 L467.687846,41.7152907 L467.687846,44.672874 C467.687846,47.7248086 469.923502,50 472.936095,50 C475.948688,50 478.184759,47.7248086 478.184759,44.672874 L478.184759,41.7152907 L476.298682,41.7152907 L476.298682,44.672874 Z M455.031811,37.809642 C456.977461,37.809642 458.667029,38.9149597 459.17092,40.6269398 L461.270055,40.6269398 C460.805051,38.0401407 458.180513,36 455.031811,36 C451.144234,36 448.20859,38.9534451 448.20859,42.9402028 C448.20859,46.9265467 451.144234,50 455.05291,50 C456.712691,50 458.227261,49.5605214 459.414178,48.8044693 L459.414178,49.8034347 L461.270055,49.8034347 L461.270055,42.6116284 L455.265968,42.6116284 L455.265968,44.4001655 L459.405491,44.4001655 L459.405491,46.2267743 C458.568981,47.473205 457.032898,48.1899441 455.168334,48.1899441 C452.253789,48.1899441 450.133142,45.953652 450.133142,42.9402028 C450.133142,39.965239 452.172703,37.809642 455.031811,37.809642 L455.031811,37.809642 Z M425.738255,41.1723567 L427.624332,41.1723567 L427.624332,36.1965653 L425.738255,36.1965653 L425.738255,41.1723567 Z M443.309921,37.4980343 L443.309921,36.1961515 L433.610629,36.1961515 L433.610629,37.9846886 L440.843831,37.9846886 L433.1841,48.4845851 L433.1841,49.8034347 L443.386456,49.8034347 L443.386456,48.0148976 L435.672117,48.0148976 L443.309921,37.4980343 Z M522.135436,36.1961515 L522.135436,46.2652597 L515.098744,36.1961515 L513.404626,36.1961515 L513.404626,49.8034347 L515.291116,49.8034347 L515.291116,39.751707 L522.348907,49.8034347 L524,49.8034347 L524,36.1961515 L522.135436,36.1961515 Z M425.738255,44.672874 C425.738255,46.6749431 424.317181,48.1729774 422.375668,48.1729774 C420.430018,48.1729774 419.013082,46.6749431 419.013082,44.672874 L419.013082,41.7152907 L417.127419,41.7152907 L417.127419,44.672874 C417.127419,47.7248086 419.363075,50 422.375668,50 C425.388261,50 427.624332,47.7248086 427.624332,44.672874 L427.624332,41.7152907 L425.738255,41.7152907 L425.738255,44.672874 Z M476.298682,41.1723567 L478.184759,41.1723567 L478.184759,36.1965653 L476.298682,36.1965653 L476.298682,41.1723567 Z M499.332069,49.8034347 L507.14942,49.8034347 L507.14942,48.0148976 L501.218145,48.0148976 L501.218145,43.5038279 L506.505283,43.5038279 L506.505283,41.7152907 L501.218145,41.7152907 L501.218145,37.9846886 L507.14942,37.9846886 L507.14942,36.1961515 L499.332069,36.1961515 L499.332069,49.8034347 Z M486.718646,36.1961515 L484.832569,36.1961515 L484.832569,49.8034347 L493.405344,49.8034347 L493.405344,48.0148976 L486.718646,48.0148976 L486.718646,36.1961515 Z M467.687432,41.1719429 L469.573509,41.1719429 L469.573509,36.1961515 L467.687432,36.1961515 L467.687432,41.1719429 Z M350.919877,36.1961515 L349.033387,36.1961515 L349.033387,49.8034347 L357.606162,49.8034347 L357.606162,48.0148976 L350.919877,48.0148976 L350.919877,36.1961515 Z M340.4995,49.8034347 L342.385576,49.8034347 L342.385576,36.1961515 L340.4995,36.1961515 L340.4995,49.8034347 Z M327.88194,36.1961515 L326,36.1961515 L326,49.8034347 L334.572362,49.8034347 L334.572362,48.0148976 L327.88194,48.0148976 L327.88194,36.1961515 Z M406.122477,41.9114422 L402.43141,36.1961515 L400.157279,36.1961515 L405.153996,43.798055 L405.153996,49.8034347 L407.035522,49.8034347 L407.035522,43.798055 L411.976803,36.1961515 L409.779207,36.1961515 L406.122477,41.9114422 Z M381.497571,41.9114422 L377.801953,36.1961515 L375.527822,36.1961515 L380.524539,43.798055 L380.524539,49.8034347 L382.410616,49.8034347 L382.410616,43.798055 L387.347346,36.1961515 L385.14975,36.1961515 L381.497571,41.9114422 Z M417.127005,41.1719429 L419.013082,41.1719429 L419.013082,36.1961515 L417.127005,36.1961515 L417.127005,41.1719429 Z M365.282441,45.0018622 L367.633521,39.0345541 L369.968053,45.0018622 L365.282441,45.0018622 Z M366.818524,36.1961515 L361.395278,49.8034347 L363.379402,49.8034347 L364.565492,46.7899855 L370.667626,46.7899855 L371.853716,49.8034347 L373.893277,49.8034347 L368.431556,36.1961515 L366.818524,36.1961515 Z" id="Fill-1"></path>
        </g>
    </g>
</svg>